<svg id="visual" viewBox="0 0 1800 100" width="1800" height="100" xmlns="http://www.w3.org/2000/svg" xmlns:xlink="http://www.w3.org/1999/xlink" version="1.1"><rect x="0" y="0" width="1800" height="100" fill="#001d27"></rect><path d="M0 77L20 77.5C40 78 80 79 120 75C160 71 200 62 240 56.8C280 51.7 320 50.3 360 52.5C400 54.7 440 60.3 480 63.5C520 66.7 560 67.3 600 64.8C640 62.3 680 56.7 720 53.8C760 51 800 51 840 55.2C880 59.3 920 67.7 960 72.7C1000 77.7 1040 79.3 1080 81.3C1120 83.3 1160 85.7 1200 83.2C1240 80.7 1280 73.3 1320 67C1360 60.7 1400 55.3 1440 55.3C1480 55.3 1520 60.7 1560 60C1600 59.3 1640 52.7 1680 51C1720 49.3 1760 52.7 1780 54.3L1800 56L1800 101L1780 101C1760 101 1720 101 1680 101C1640 101 1600 101 1560 101C1520 101 1480 101 1440 101C1400 101 1360 101 1320 101C1280 101 1240 101 1200 101C1160 101 1120 101 1080 101C1040 101 1000 101 960 101C920 101 880 101 840 101C800 101 760 101 720 101C680 101 640 101 600 101C560 101 520 101 480 101C440 101 400 101 360 101C320 101 280 101 240 101C200 101 160 101 120 101C80 101 40 101 20 101L0 101Z" fill="#F9F7FB" stroke-linecap="round" stroke-linejoin="miter"></path></svg>