<svg id="visual" viewBox="0 0 1800 100" width="1800" height="100" xmlns="http://www.w3.org/2000/svg" xmlns:xlink="http://www.w3.org/1999/xlink" version="1.1"><rect x="0" y="0" width="1800" height="100" fill="#001d27"></rect><path d="M0 53L20 52.5C40 52 80 51 120 44.3C160 37.7 200 25.3 240 22.2C280 19 320 25 360 24.5C400 24 440 17 480 16.8C520 16.7 560 23.3 600 29.5C640 35.7 680 41.3 720 41.7C760 42 800 37 840 34.5C880 32 920 32 960 35.5C1000 39 1040 46 1080 49.2C1120 52.3 1160 51.7 1200 48.8C1240 46 1280 41 1320 37.5C1360 34 1400 32 1440 28.3C1480 24.7 1520 19.3 1560 18.5C1600 17.7 1640 21.3 1680 24.5C1720 27.7 1760 30.3 1780 31.7L1800 33L1800 0L1780 0C1760 0 1720 0 1680 0C1640 0 1600 0 1560 0C1520 0 1480 0 1440 0C1400 0 1360 0 1320 0C1280 0 1240 0 1200 0C1160 0 1120 0 1080 0C1040 0 1000 0 960 0C920 0 880 0 840 0C800 0 760 0 720 0C680 0 640 0 600 0C560 0 520 0 480 0C440 0 400 0 360 0C320 0 280 0 240 0C200 0 160 0 120 0C80 0 40 0 20 0L0 0Z" fill="#ffffff" stroke-linecap="round" stroke-linejoin="miter"></path></svg>