<svg id="visual" viewBox="0 0 1900 300" width="1900" height="300" xmlns="http://www.w3.org/2000/svg" xmlns:xlink="http://www.w3.org/1999/xlink" version="1.1"><rect x="0" y="0" width="1900" height="300" fill="#ffffff"></rect><path d="M0 101L63.3 127.2C126.7 153.3 253.3 205.7 380 198.7C506.7 191.7 633.3 125.3 760 120.3C886.7 115.3 1013.3 171.7 1140 182.3C1266.7 193 1393.3 158 1520 134.5C1646.7 111 1773.3 99 1836.7 93L1900 87L1900 301L1836.7 301C1773.3 301 1646.7 301 1520 301C1393.3 301 1266.7 301 1140 301C1013.3 301 886.7 301 760 301C633.3 301 506.7 301 380 301C253.3 301 126.7 301 63.3 301L0 301Z" fill="#001d27" stroke-linecap="round" stroke-linejoin="miter"></path></svg>