<svg id="visual" viewBox="0 0 1900 300" width="1900" height="300" xmlns="http://www.w3.org/2000/svg" xmlns:xlink="http://www.w3.org/1999/xlink" version="1.1"><rect x="0" y="0" width="1900" height="300" fill="#F9F7FB"></rect><path d="M0 191L63.3 182.3C126.7 173.7 253.3 156.3 380 165.5C506.7 174.7 633.3 210.3 760 215.7C886.7 221 1013.3 196 1140 170.5C1266.7 145 1393.3 119 1520 129.7C1646.7 140.3 1773.3 187.7 1836.7 211.3L1900 235L1900 0L1836.7 0C1773.3 0 1646.7 0 1520 0C1393.3 0 1266.7 0 1140 0C1013.3 0 886.7 0 760 0C633.3 0 506.7 0 380 0C253.3 0 126.7 0 63.3 0L0 0Z" fill="#001d27" stroke-linecap="round" stroke-linejoin="miter"></path></svg>