<svg id="visual" viewBox="0 0 1900 300" width="1900" height="300" xmlns="http://www.w3.org/2000/svg" xmlns:xlink="http://www.w3.org/1999/xlink" version="1.1"><rect x="0" y="0" width="1900" height="300" fill="#f9f7fb"></rect><path d="M0 236L24.3 241.3C48.7 246.7 97.3 257.3 146 258.7C194.7 260 243.3 252 292 245.8C340.7 239.7 389.3 235.3 438.2 230.5C487 225.7 536 220.3 584.8 217.3C633.7 214.3 682.3 213.7 731 222C779.7 230.3 828.3 247.7 877 247.8C925.7 248 974.3 231 1023 226.2C1071.7 221.3 1120.3 228.7 1169 235C1217.7 241.3 1266.3 246.7 1315.2 248C1364 249.3 1413 246.7 1461.8 246.5C1510.7 246.3 1559.3 248.7 1608 242.8C1656.7 237 1705.3 223 1754 217.8C1802.7 212.7 1851.3 216.3 1875.7 218.2L1900 220L1900 301L1875.7 301C1851.3 301 1802.7 301 1754 301C1705.3 301 1656.7 301 1608 301C1559.3 301 1510.7 301 1461.8 301C1413 301 1364 301 1315.2 301C1266.3 301 1217.7 301 1169 301C1120.3 301 1071.7 301 1023 301C974.3 301 925.7 301 877 301C828.3 301 779.7 301 731 301C682.3 301 633.7 301 584.8 301C536 301 487 301 438.2 301C389.3 301 340.7 301 292 301C243.3 301 194.7 301 146 301C97.3 301 48.7 301 24.3 301L0 301Z" fill="#001d27" stroke-linecap="round" stroke-linejoin="miter"></path></svg>