<?xml version="1.0" encoding="UTF-8"?>
<svg xmlns="http://www.w3.org/2000/svg" xmlns:xlink="http://www.w3.org/1999/xlink" viewBox="0 0 70 70" width="70px" height="70px">
<g id="surface6313724">
<path style=" stroke:none;fill-rule:nonzero;fill:rgb(18.039216%,80.000001%,44.313726%);fill-opacity:1;" d="M 45.9375 8.75 L 54.6875 8.75 L 54.6875 17.5 L 45.9375 17.5 Z M 54.6875 49.773438 C 54.6875 52.726562 53.992188 62.460938 45.40625 65.414062 L 37.1875 61.25 C 43.324219 58.574219 45.9375 54.25 45.9375 49.773438 C 45.9375 43.589844 45.9375 24.0625 45.9375 24.0625 L 54.6875 24.066406 C 54.6875 24.066406 54.6875 43.125 54.6875 49.773438 Z M 30.625 8.75 L 30.625 22.535156 C 29.597656 22.117188 27.386719 22.035156 26.296875 22.035156 C 18.097656 22.035156 10.9375 26.273438 10.9375 37.1875 C 10.9375 50.246094 20.789062 52.492188 27.671875 52.492188 C 30.390625 52.492188 36.421875 52.226562 39.375 51.371094 L 39.375 8.75 Z M 27.582031 45.207031 C 23.710938 45.207031 19.6875 43.449219 19.6875 37.1875 C 19.6875 30.925781 23.710938 29.597656 27.582031 29.597656 C 28.527344 29.597656 29.589844 29.777344 30.625 30.011719 L 30.625 44.792969 C 29.59375 45.027344 28.53125 45.207031 27.582031 45.207031 Z M 27.582031 45.207031 "/>
</g>
</svg>
